<?xml version="1.0" standalone="no"?>
<!DOCTYPE svg PUBLIC "-//W3C//DTD SVG 20010904//EN"
 "http://www.w3.org/TR/2001/REC-SVG-20010904/DTD/svg10.dtd">
<svg version="1.0" xmlns="http://www.w3.org/2000/svg"
 width="500.000000pt" height="500.000000pt" viewBox="0 0 500.000000 500.000000"
 preserveAspectRatio="xMidYMid meet">
<metadata>
Created by potrace 1.14, written by Peter Selinger 2001-2017
</metadata>
<g transform="translate(0.000000,500.000000) scale(0.100000,-0.100000)"
fill="#000000" stroke="none">
<path d="M3915 4256 c-13 -9 -18 -26 -18 -57 l0 -44 81 -1 c120 -2 170 -12
183 -35 20 -39 18 -58 -8 -79 -22 -17 -40 -20 -138 -20 -99 0 -113 -2 -117
-17 -3 -15 -2 -262 1 -311 1 -9 16 -12 53 -10 l53 3 1 108 c1 60 3 110 5 112
2 2 36 5 74 6 39 2 86 11 106 21 38 18 88 70 91 94 10 91 -3 142 -45 182 -38
35 -86 48 -194 51 -53 1 -100 4 -104 6 -3 3 -14 -2 -24 -9z"/>
<path d="M2977 4254 c-4 -4 -7 -134 -7 -289 0 -260 2 -282 18 -283 50 -3 245
-1 252 3 4 2 7 26 6 52 l-1 48 -80 3 c-44 2 -82 5 -83 7 -6 6 -3 107 3 113 3
3 53 6 110 7 57 0 108 4 112 9 12 12 11 96 -1 97 -6 1 -57 2 -113 3 -56 1
-105 5 -108 8 -4 3 -6 21 -5 39 0 19 0 44 0 56 0 21 5 22 83 25 l82 3 0 50 0
50 -131 3 c-71 1 -133 0 -137 -4z"/>
<path d="M3702 4208 c-21 -29 -52 -72 -68 -95 l-31 -43 -26 30 c-15 16 -27 34
-27 40 0 12 -127 14 -134 1 -3 -4 21 -44 54 -89 l59 -80 -28 -44 c-16 -25 -58
-86 -95 -136 -36 -51 -66 -96 -66 -102 0 -6 26 -10 59 -10 67 0 75 5 127 85
18 27 42 61 54 75 l20 25 21 -24 c11 -13 23 -31 28 -38 8 -16 111 -26 131 -13
9 6 -4 32 -48 91 -62 85 -64 94 -30 131 7 7 33 42 58 78 24 36 48 67 52 68 4
2 8 8 8 14 0 5 11 24 25 42 14 18 25 36 25 39 0 4 -29 7 -65 7 l-64 0 -39 -52z"/>
<path d="M4485 4242 c-122 -39 -201 -189 -173 -330 13 -67 12 -64 32 -100 27
-52 83 -98 141 -116 54 -18 181 -20 191 -4 3 4 14 8 25 8 34 0 124 99 143 158
67 202 -46 388 -243 397 -41 1 -85 -3 -116 -13z m186 -115 c87 -58 108 -210
40 -285 -46 -51 -83 -62 -181 -53 -25 2 -79 56 -95 95 -35 83 -5 198 64 243
47 32 125 32 172 0z"/>
<path d="M4546 4004 c-34 -34 -9 -94 39 -94 25 0 55 33 55 62 0 24 -27 48 -55
48 -13 0 -31 -7 -39 -16z"/>
<path d="M1488 4238 c-15 -12 -90 -199 -91 -225 0 -7 -4 -13 -9 -13 -4 0 -8
-8 -8 -18 0 -10 -3 -22 -7 -26 -5 -4 -8 -11 -8 -14 -1 -11 -38 -106 -45 -117
-6 -9 -32 -80 -35 -95 0 -3 -11 -27 -23 -54 -12 -27 -22 -53 -22 -57 0 -5 -4
-17 -10 -27 -5 -9 -33 -78 -61 -152 -29 -74 -61 -157 -71 -185 -11 -27 -20
-56 -21 -62 0 -7 -4 -13 -9 -13 -4 0 -8 -6 -8 -12 0 -11 -61 -176 -89 -243
-17 -41 -33 -80 -76 -194 -24 -64 -49 -129 -56 -146 -7 -16 -13 -34 -15 -40
-6 -21 -76 -202 -90 -230 -7 -16 -22 -55 -33 -85 -11 -30 -43 -113 -71 -185
-69 -175 -197 -506 -225 -580 -12 -33 -27 -71 -33 -85 -10 -23 -54 -138 -173
-450 -49 -127 -52 -135 -72 -181 -14 -32 -14 -39 -1 -57 14 -20 24 -20 340
-21 251 0 329 3 339 13 7 7 27 55 45 107 18 52 36 98 40 103 5 4 17 -11 28
-35 28 -65 93 -132 164 -170 56 -29 73 -33 146 -35 120 -2 183 24 271 115 84
86 113 199 84 326 -37 162 -193 280 -360 270 -55 -3 -136 -27 -158 -47 -16
-15 -26 -9 -23 15 2 12 10 27 18 33 14 10 76 33 110 41 18 4 119 4 140 -1 47
-9 105 -29 132 -45 38 -24 128 -102 128 -112 0 -5 11 -24 24 -44 47 -69 69
-270 35 -311 -6 -8 -9 -14 -5 -14 4 0 0 -12 -7 -28 -26 -51 -29 -68 -10 -71
10 -1 144 -3 298 -4 154 -1 285 -6 292 -10 6 -4 15 -22 19 -39 3 -18 14 -38
23 -44 11 -9 109 -13 340 -14 297 -1 324 1 336 17 9 12 10 25 4 41 -18 48 -15
50 82 47 93 -2 108 -9 109 -46 0 -19 36 -59 53 -59 24 0 55 30 62 59 3 16 12
34 18 39 7 5 100 8 207 7 107 -1 203 2 212 7 16 8 16 11 4 31 -8 12 -22 48
-31 79 -55 194 24 381 204 477 33 17 61 30 61 27 0 -3 12 -1 27 5 40 15 135
13 211 -5 42 -10 119 -58 166 -103 41 -41 96 -132 103 -173 12 -63 14 -80 13
-120 -1 -58 -8 -98 -21 -121 -5 -11 -7 -19 -4 -19 3 0 -6 -18 -21 -41 -14 -23
-21 -38 -15 -35 6 4 11 3 11 -2 0 -14 172 -5 255 13 35 8 92 26 101 32 13 9
44 98 44 125 0 10 4 18 8 18 4 0 13 20 20 44 8 23 19 54 25 67 25 48 16 59
-113 156 -69 51 -130 96 -135 100 -9 7 -207 137 -260 171 -38 24 -110 54 -145
61 -43 7 -426 7 -533 -1 -42 -3 -80 -2 -83 3 -3 5 1 23 9 41 17 39 111 281
112 288 1 13 60 156 67 164 4 6 8 16 8 24 0 8 7 30 16 50 21 48 26 62 64 162
18 47 38 99 45 115 7 17 23 59 36 95 12 36 26 69 31 74 4 6 8 15 8 22 0 6 8
29 17 50 9 22 17 41 18 44 1 3 5 14 10 25 4 11 30 79 57 150 26 72 54 144 62
160 8 17 21 50 29 75 9 25 22 59 28 75 7 17 13 35 15 40 5 20 124 310 134 327
6 11 6 19 -1 24 -13 8 -665 8 -678 0 -5 -4 -19 -37 -31 -74 -12 -37 -25 -76
-30 -87 -4 -11 -20 -56 -35 -100 -15 -44 -30 -89 -35 -100 -4 -11 -22 -60 -40
-110 -29 -82 -56 -159 -76 -210 -4 -11 -8 -24 -10 -30 -3 -13 -73 -206 -81
-225 -3 -8 -7 -19 -9 -25 -1 -5 -20 -59 -42 -120 -22 -60 -46 -130 -54 -155
-8 -25 -20 -45 -28 -45 -7 0 -23 29 -35 65 -33 96 -227 636 -280 780 -25 69
-48 132 -50 140 -4 16 -122 348 -155 435 -10 28 -37 104 -60 170 -23 66 -46
129 -51 140 -4 11 -22 60 -38 109 -17 50 -36 95 -41 100 -12 12 -651 18 -670
6 -23 -14 -15 -44 55 -215 5 -11 9 -22 10 -25 1 -3 5 -14 10 -25 7 -18 70
-184 157 -410 16 -44 34 -89 38 -100 5 -11 30 -76 56 -145 26 -69 62 -163 80
-210 18 -47 55 -146 84 -220 28 -74 55 -144 60 -155 6 -11 21 -49 34 -85 28
-78 154 -407 166 -435 5 -11 22 -56 39 -100 16 -44 43 -115 60 -158 29 -77 27
-96 -6 -79 -23 12 -100 26 -134 24 -15 -1 -31 4 -36 10 -13 16 -193 480 -193
496 0 7 -4 12 -8 12 -5 0 -9 6 -9 13 -1 12 -95 257 -152 395 -16 39 -28 72
-25 72 3 0 -1 12 -9 28 -18 33 -28 58 -61 142 -13 36 -45 119 -71 185 -25 66
-51 131 -57 145 -6 14 -12 30 -14 35 -3 15 -73 196 -86 225 -6 14 -12 27 -12
30 -1 6 -92 240 -108 280 -6 14 -14 34 -18 45 -93 239 -91 235 -119 235 -10 0
-24 -6 -33 -12z m43 -1580 c0 -4 7 -25 16 -45 8 -21 46 -126 83 -233 101 -290
102 -293 115 -325 30 -74 68 -195 63 -200 -5 -5 -17 -9 -75 -21 -12 -2 -34 -9
-48 -14 -14 -5 -25 -7 -25 -5 0 2 -12 0 -27 -6 -16 -6 -39 -13 -53 -15 -14 -3
-43 -10 -65 -16 -22 -6 -44 -12 -50 -14 -5 -1 -44 -11 -85 -23 -145 -40 -201
-54 -206 -48 -3 3 7 40 21 83 15 44 28 84 29 89 2 6 7 21 13 35 5 14 29 81 53
150 23 69 46 134 50 145 10 23 19 55 21 70 0 6 4 15 9 20 4 6 20 48 35 95 15
47 33 99 40 115 15 36 44 121 52 153 5 20 34 29 34 10z m1109 -925 c8 -4 17
-7 20 -8 60 -15 79 -29 94 -66 9 -22 16 -46 16 -54 0 -8 4 -15 8 -15 4 0 9
-11 10 -25 2 -24 1 -24 -87 -24 -57 0 -93 4 -99 12 -12 14 -71 166 -77 195 -3
20 -2 20 48 6 29 -8 59 -18 67 -21z m-763 -48 c35 -95 34 -97 -39 -92 -52 3
-64 8 -77 28 -9 13 -22 30 -29 38 -14 14 -35 62 -30 66 7 7 96 21 123 21 27
-1 32 -6 52 -61z m-514 -414 c146 -71 208 -253 135 -396 -25 -49 -87 -115
-108 -115 -5 0 -10 -4 -10 -8 0 -10 -86 -35 -130 -37 -44 -2 -124 19 -157 40
-210 138 -176 448 57 528 61 21 156 15 213 -12z"/>
<path d="M3970 1360 c-7 -5 -18 -6 -25 -4 -22 9 -122 -45 -172 -93 -72 -70
-106 -151 -106 -258 0 -70 4 -88 31 -145 45 -92 82 -129 182 -180 61 -32 219
-36 263 -6 15 10 27 15 27 11 0 -8 57 32 92 64 35 34 88 113 82 123 -3 4 -1 8
4 8 10 0 25 77 26 135 4 132 -98 277 -232 329 -49 19 -152 28 -172 16z m170
-87 c49 -23 110 -73 110 -91 0 -7 3 -12 8 -12 8 0 34 -53 41 -85 12 -55 4
-152 -17 -198 -65 -147 -243 -213 -386 -143 -101 49 -158 138 -162 251 -4 120
46 211 149 269 26 14 47 23 47 19 0 -4 5 -2 10 3 19 19 150 10 200 -13z"/>
</g>
</svg>
